<mxfile host="app.diagrams.net" modified="2022-06-06T03:20:21.860Z" agent="5.0 (Windows NT 10.0; Win64; x64) AppleWebKit/537.36 (KHTML, like Gecko) Chrome/98.0.4758.82 Safari/537.36" etag="ucVGAEEUCVMdnD0Xkzv5" version="18.2.0" type="github">
  <diagram id="PfBPDpIyo2bPwcz3J0ad" name="第 1 页">
    <mxGraphModel dx="1422" dy="762" grid="1" gridSize="10" guides="1" tooltips="1" connect="1" arrows="1" fold="1" page="1" pageScale="1" pageWidth="827" pageHeight="1169" math="0" shadow="0">
      <root>
        <mxCell id="0" />
        <mxCell id="1" parent="0" />
        <mxCell id="mA__yqEP0Z9pplXgvL4o-2" value="" style="rounded=0;whiteSpace=wrap;html=1;" vertex="1" parent="1">
          <mxGeometry x="160" y="460" width="460" height="120" as="geometry" />
        </mxCell>
        <mxCell id="mA__yqEP0Z9pplXgvL4o-6" value="" style="rounded=0;whiteSpace=wrap;html=1;" vertex="1" parent="1">
          <mxGeometry x="190" y="470" width="280" height="80" as="geometry" />
        </mxCell>
        <mxCell id="mA__yqEP0Z9pplXgvL4o-12" value="" style="edgeStyle=orthogonalEdgeStyle;rounded=0;orthogonalLoop=1;jettySize=auto;html=1;" edge="1" parent="1" source="mA__yqEP0Z9pplXgvL4o-7" target="mA__yqEP0Z9pplXgvL4o-8">
          <mxGeometry relative="1" as="geometry" />
        </mxCell>
        <mxCell id="mA__yqEP0Z9pplXgvL4o-7" value="主库" style="shape=cylinder3;whiteSpace=wrap;html=1;boundedLbl=1;backgroundOutline=1;size=15;" vertex="1" parent="1">
          <mxGeometry x="200" y="477.79999999999995" width="50" height="62.2" as="geometry" />
        </mxCell>
        <mxCell id="mA__yqEP0Z9pplXgvL4o-11" value="" style="edgeStyle=orthogonalEdgeStyle;rounded=0;orthogonalLoop=1;jettySize=auto;html=1;" edge="1" parent="1" source="mA__yqEP0Z9pplXgvL4o-8" target="mA__yqEP0Z9pplXgvL4o-10">
          <mxGeometry relative="1" as="geometry" />
        </mxCell>
        <mxCell id="mA__yqEP0Z9pplXgvL4o-8" value="从库" style="shape=cylinder3;whiteSpace=wrap;html=1;boundedLbl=1;backgroundOutline=1;size=15;" vertex="1" parent="1">
          <mxGeometry x="300" y="477.80999999999995" width="50" height="62.19" as="geometry" />
        </mxCell>
        <mxCell id="mA__yqEP0Z9pplXgvL4o-10" value="备库" style="shape=cylinder3;whiteSpace=wrap;html=1;boundedLbl=1;backgroundOutline=1;size=15;" vertex="1" parent="1">
          <mxGeometry x="398" y="477.80999999999995" width="52" height="62.19" as="geometry" />
        </mxCell>
        <mxCell id="mA__yqEP0Z9pplXgvL4o-52" style="edgeStyle=orthogonalEdgeStyle;rounded=0;orthogonalLoop=1;jettySize=auto;html=1;entryX=0.5;entryY=0;entryDx=0;entryDy=0;" edge="1" parent="1" source="mA__yqEP0Z9pplXgvL4o-14" target="mA__yqEP0Z9pplXgvL4o-42">
          <mxGeometry relative="1" as="geometry" />
        </mxCell>
        <mxCell id="mA__yqEP0Z9pplXgvL4o-14" value="" style="rounded=0;whiteSpace=wrap;html=1;" vertex="1" parent="1">
          <mxGeometry x="160" y="140" width="460" height="160" as="geometry" />
        </mxCell>
        <mxCell id="mA__yqEP0Z9pplXgvL4o-16" value="spider" style="rounded=0;whiteSpace=wrap;html=1;" vertex="1" parent="1">
          <mxGeometry x="230" y="180" width="86" height="110" as="geometry" />
        </mxCell>
        <mxCell id="mA__yqEP0Z9pplXgvL4o-23" value="服务" style="rounded=0;whiteSpace=wrap;html=1;" vertex="1" parent="1">
          <mxGeometry x="50" y="140" width="100" height="160" as="geometry" />
        </mxCell>
        <mxCell id="mA__yqEP0Z9pplXgvL4o-29" value="" style="rounded=0;whiteSpace=wrap;html=1;" vertex="1" parent="1">
          <mxGeometry x="374" y="180" width="86" height="110" as="geometry" />
        </mxCell>
        <mxCell id="mA__yqEP0Z9pplXgvL4o-30" value="proxy1" style="rounded=1;whiteSpace=wrap;html=1;" vertex="1" parent="1">
          <mxGeometry x="384" y="185" width="70" height="25" as="geometry" />
        </mxCell>
        <mxCell id="mA__yqEP0Z9pplXgvL4o-31" value="proxy2" style="rounded=1;whiteSpace=wrap;html=1;" vertex="1" parent="1">
          <mxGeometry x="384" y="220" width="70" height="25" as="geometry" />
        </mxCell>
        <mxCell id="mA__yqEP0Z9pplXgvL4o-32" value="proxy3" style="rounded=1;whiteSpace=wrap;html=1;" vertex="1" parent="1">
          <mxGeometry x="384" y="260" width="70" height="25" as="geometry" />
        </mxCell>
        <mxCell id="mA__yqEP0Z9pplXgvL4o-33" value="IP代理集群" style="text;html=1;strokeColor=none;fillColor=none;align=center;verticalAlign=middle;whiteSpace=wrap;rounded=0;" vertex="1" parent="1">
          <mxGeometry x="374" y="150" width="86" height="30" as="geometry" />
        </mxCell>
        <mxCell id="mA__yqEP0Z9pplXgvL4o-41" value="" style="shape=doubleArrow;whiteSpace=wrap;html=1;" vertex="1" parent="1">
          <mxGeometry x="319" y="220" width="55" height="30" as="geometry" />
        </mxCell>
        <mxCell id="mA__yqEP0Z9pplXgvL4o-51" style="edgeStyle=orthogonalEdgeStyle;rounded=0;orthogonalLoop=1;jettySize=auto;html=1;entryX=0.5;entryY=0;entryDx=0;entryDy=0;" edge="1" parent="1" source="mA__yqEP0Z9pplXgvL4o-42" target="mA__yqEP0Z9pplXgvL4o-2">
          <mxGeometry relative="1" as="geometry" />
        </mxCell>
        <mxCell id="mA__yqEP0Z9pplXgvL4o-42" value="" style="rounded=0;whiteSpace=wrap;html=1;" vertex="1" parent="1">
          <mxGeometry x="160" y="330" width="460" height="100" as="geometry" />
        </mxCell>
        <mxCell id="mA__yqEP0Z9pplXgvL4o-43" value="中间件" style="whiteSpace=wrap;html=1;aspect=fixed;" vertex="1" parent="1">
          <mxGeometry x="50" y="330" width="100" height="100" as="geometry" />
        </mxCell>
        <mxCell id="mA__yqEP0Z9pplXgvL4o-84" value="mysql" style="text;html=1;strokeColor=none;fillColor=none;align=center;verticalAlign=middle;whiteSpace=wrap;rounded=0;" vertex="1" parent="1">
          <mxGeometry x="290" y="550" width="60" height="30" as="geometry" />
        </mxCell>
        <mxCell id="mA__yqEP0Z9pplXgvL4o-88" value="存储" style="rounded=0;whiteSpace=wrap;html=1;" vertex="1" parent="1">
          <mxGeometry x="50" y="460" width="100" height="120" as="geometry" />
        </mxCell>
        <mxCell id="mA__yqEP0Z9pplXgvL4o-89" value="mq" style="shape=process;whiteSpace=wrap;html=1;backgroundOutline=1;" vertex="1" parent="1">
          <mxGeometry x="210" y="358.9" width="90" height="40" as="geometry" />
        </mxCell>
        <mxCell id="mA__yqEP0Z9pplXgvL4o-90" value="xxl-job" style="rounded=1;whiteSpace=wrap;html=1;" vertex="1" parent="1">
          <mxGeometry x="503" y="360" width="110" height="40" as="geometry" />
        </mxCell>
        <mxCell id="mA__yqEP0Z9pplXgvL4o-91" value="" style="rounded=0;whiteSpace=wrap;html=1;" vertex="1" parent="1">
          <mxGeometry x="515" y="180" width="86" height="110" as="geometry" />
        </mxCell>
        <mxCell id="mA__yqEP0Z9pplXgvL4o-92" value="xxx1" style="rounded=1;whiteSpace=wrap;html=1;" vertex="1" parent="1">
          <mxGeometry x="525" y="185" width="70" height="25" as="geometry" />
        </mxCell>
        <mxCell id="mA__yqEP0Z9pplXgvL4o-93" value="xxx2" style="rounded=1;whiteSpace=wrap;html=1;" vertex="1" parent="1">
          <mxGeometry x="525" y="220" width="70" height="25" as="geometry" />
        </mxCell>
        <mxCell id="mA__yqEP0Z9pplXgvL4o-94" value="xxx3" style="rounded=1;whiteSpace=wrap;html=1;" vertex="1" parent="1">
          <mxGeometry x="525" y="260" width="70" height="25" as="geometry" />
        </mxCell>
        <mxCell id="mA__yqEP0Z9pplXgvL4o-95" value="xxx集群" style="text;html=1;strokeColor=none;fillColor=none;align=center;verticalAlign=middle;whiteSpace=wrap;rounded=0;" vertex="1" parent="1">
          <mxGeometry x="515" y="150" width="86" height="30" as="geometry" />
        </mxCell>
        <mxCell id="mA__yqEP0Z9pplXgvL4o-97" value="" style="shape=doubleArrow;whiteSpace=wrap;html=1;" vertex="1" parent="1">
          <mxGeometry x="460" y="220" width="55" height="30" as="geometry" />
        </mxCell>
        <mxCell id="mA__yqEP0Z9pplXgvL4o-98" value="" style="rounded=0;whiteSpace=wrap;html=1;" vertex="1" parent="1">
          <mxGeometry x="820" y="460" width="460" height="120" as="geometry" />
        </mxCell>
        <mxCell id="mA__yqEP0Z9pplXgvL4o-99" value="" style="rounded=0;whiteSpace=wrap;html=1;" vertex="1" parent="1">
          <mxGeometry x="850" y="470" width="280" height="80" as="geometry" />
        </mxCell>
        <mxCell id="mA__yqEP0Z9pplXgvL4o-100" value="" style="edgeStyle=orthogonalEdgeStyle;rounded=0;orthogonalLoop=1;jettySize=auto;html=1;" edge="1" parent="1" source="mA__yqEP0Z9pplXgvL4o-101" target="mA__yqEP0Z9pplXgvL4o-103">
          <mxGeometry relative="1" as="geometry" />
        </mxCell>
        <mxCell id="mA__yqEP0Z9pplXgvL4o-101" value="主库" style="shape=cylinder3;whiteSpace=wrap;html=1;boundedLbl=1;backgroundOutline=1;size=15;" vertex="1" parent="1">
          <mxGeometry x="860" y="477.79999999999995" width="50" height="62.2" as="geometry" />
        </mxCell>
        <mxCell id="mA__yqEP0Z9pplXgvL4o-102" value="" style="edgeStyle=orthogonalEdgeStyle;rounded=0;orthogonalLoop=1;jettySize=auto;html=1;" edge="1" parent="1" source="mA__yqEP0Z9pplXgvL4o-103" target="mA__yqEP0Z9pplXgvL4o-104">
          <mxGeometry relative="1" as="geometry" />
        </mxCell>
        <mxCell id="mA__yqEP0Z9pplXgvL4o-103" value="从库" style="shape=cylinder3;whiteSpace=wrap;html=1;boundedLbl=1;backgroundOutline=1;size=15;" vertex="1" parent="1">
          <mxGeometry x="960" y="477.80999999999995" width="50" height="62.19" as="geometry" />
        </mxCell>
        <mxCell id="mA__yqEP0Z9pplXgvL4o-104" value="备库" style="shape=cylinder3;whiteSpace=wrap;html=1;boundedLbl=1;backgroundOutline=1;size=15;" vertex="1" parent="1">
          <mxGeometry x="1058" y="477.80999999999995" width="52" height="62.19" as="geometry" />
        </mxCell>
        <mxCell id="mA__yqEP0Z9pplXgvL4o-105" style="edgeStyle=orthogonalEdgeStyle;rounded=0;orthogonalLoop=1;jettySize=auto;html=1;entryX=0.5;entryY=0;entryDx=0;entryDy=0;" edge="1" parent="1" source="mA__yqEP0Z9pplXgvL4o-106" target="mA__yqEP0Z9pplXgvL4o-120">
          <mxGeometry relative="1" as="geometry" />
        </mxCell>
        <mxCell id="mA__yqEP0Z9pplXgvL4o-106" value="" style="rounded=0;whiteSpace=wrap;html=1;" vertex="1" parent="1">
          <mxGeometry x="820" y="140" width="460" height="160" as="geometry" />
        </mxCell>
        <mxCell id="mA__yqEP0Z9pplXgvL4o-107" value="" style="rounded=0;whiteSpace=wrap;html=1;" vertex="1" parent="1">
          <mxGeometry x="890" y="180" width="86" height="110" as="geometry" />
        </mxCell>
        <mxCell id="mA__yqEP0Z9pplXgvL4o-108" value="服务" style="rounded=0;whiteSpace=wrap;html=1;" vertex="1" parent="1">
          <mxGeometry x="710" y="140" width="100" height="160" as="geometry" />
        </mxCell>
        <mxCell id="mA__yqEP0Z9pplXgvL4o-109" value="spider1" style="rounded=1;whiteSpace=wrap;html=1;" vertex="1" parent="1">
          <mxGeometry x="900" y="185" width="70" height="25" as="geometry" />
        </mxCell>
        <mxCell id="mA__yqEP0Z9pplXgvL4o-110" value="spider2" style="rounded=1;whiteSpace=wrap;html=1;" vertex="1" parent="1">
          <mxGeometry x="900" y="220" width="70" height="25" as="geometry" />
        </mxCell>
        <mxCell id="mA__yqEP0Z9pplXgvL4o-111" value="spider3" style="rounded=1;whiteSpace=wrap;html=1;" vertex="1" parent="1">
          <mxGeometry x="900" y="260" width="70" height="25" as="geometry" />
        </mxCell>
        <mxCell id="mA__yqEP0Z9pplXgvL4o-112" value="spider集群" style="text;html=1;strokeColor=none;fillColor=none;align=center;verticalAlign=middle;whiteSpace=wrap;rounded=0;" vertex="1" parent="1">
          <mxGeometry x="890" y="150" width="86" height="30" as="geometry" />
        </mxCell>
        <mxCell id="mA__yqEP0Z9pplXgvL4o-113" value="" style="rounded=0;whiteSpace=wrap;html=1;" vertex="1" parent="1">
          <mxGeometry x="1034" y="180" width="86" height="110" as="geometry" />
        </mxCell>
        <mxCell id="mA__yqEP0Z9pplXgvL4o-114" value="proxy1" style="rounded=1;whiteSpace=wrap;html=1;" vertex="1" parent="1">
          <mxGeometry x="1044" y="185" width="70" height="25" as="geometry" />
        </mxCell>
        <mxCell id="mA__yqEP0Z9pplXgvL4o-115" value="proxy2" style="rounded=1;whiteSpace=wrap;html=1;" vertex="1" parent="1">
          <mxGeometry x="1044" y="220" width="70" height="25" as="geometry" />
        </mxCell>
        <mxCell id="mA__yqEP0Z9pplXgvL4o-116" value="proxy3" style="rounded=1;whiteSpace=wrap;html=1;" vertex="1" parent="1">
          <mxGeometry x="1044" y="260" width="70" height="25" as="geometry" />
        </mxCell>
        <mxCell id="mA__yqEP0Z9pplXgvL4o-117" value="IP代理集群" style="text;html=1;strokeColor=none;fillColor=none;align=center;verticalAlign=middle;whiteSpace=wrap;rounded=0;" vertex="1" parent="1">
          <mxGeometry x="1034" y="150" width="86" height="30" as="geometry" />
        </mxCell>
        <mxCell id="mA__yqEP0Z9pplXgvL4o-118" value="" style="shape=doubleArrow;whiteSpace=wrap;html=1;" vertex="1" parent="1">
          <mxGeometry x="979" y="220" width="55" height="30" as="geometry" />
        </mxCell>
        <mxCell id="mA__yqEP0Z9pplXgvL4o-119" style="edgeStyle=orthogonalEdgeStyle;rounded=0;orthogonalLoop=1;jettySize=auto;html=1;entryX=0.5;entryY=0;entryDx=0;entryDy=0;" edge="1" parent="1" source="mA__yqEP0Z9pplXgvL4o-120" target="mA__yqEP0Z9pplXgvL4o-98">
          <mxGeometry relative="1" as="geometry" />
        </mxCell>
        <mxCell id="mA__yqEP0Z9pplXgvL4o-120" value="" style="rounded=0;whiteSpace=wrap;html=1;" vertex="1" parent="1">
          <mxGeometry x="820" y="330" width="460" height="100" as="geometry" />
        </mxCell>
        <mxCell id="mA__yqEP0Z9pplXgvL4o-121" value="中间件" style="whiteSpace=wrap;html=1;aspect=fixed;" vertex="1" parent="1">
          <mxGeometry x="710" y="330" width="100" height="100" as="geometry" />
        </mxCell>
        <mxCell id="mA__yqEP0Z9pplXgvL4o-122" value="redis" style="shape=cylinder3;whiteSpace=wrap;html=1;boundedLbl=1;backgroundOutline=1;size=15;" vertex="1" parent="1">
          <mxGeometry x="860" y="347.79999999999995" width="50" height="62.2" as="geometry" />
        </mxCell>
        <mxCell id="mA__yqEP0Z9pplXgvL4o-123" value="mysql" style="text;html=1;strokeColor=none;fillColor=none;align=center;verticalAlign=middle;whiteSpace=wrap;rounded=0;" vertex="1" parent="1">
          <mxGeometry x="950" y="550" width="60" height="30" as="geometry" />
        </mxCell>
        <mxCell id="mA__yqEP0Z9pplXgvL4o-124" value="存储" style="rounded=0;whiteSpace=wrap;html=1;" vertex="1" parent="1">
          <mxGeometry x="710" y="460" width="100" height="120" as="geometry" />
        </mxCell>
        <mxCell id="mA__yqEP0Z9pplXgvL4o-125" value="mq" style="shape=process;whiteSpace=wrap;html=1;backgroundOutline=1;" vertex="1" parent="1">
          <mxGeometry x="970" y="360" width="90" height="40" as="geometry" />
        </mxCell>
        <mxCell id="mA__yqEP0Z9pplXgvL4o-126" value="xxl-job" style="rounded=1;whiteSpace=wrap;html=1;" vertex="1" parent="1">
          <mxGeometry x="1110" y="360" width="110" height="40" as="geometry" />
        </mxCell>
        <mxCell id="mA__yqEP0Z9pplXgvL4o-127" value="" style="rounded=0;whiteSpace=wrap;html=1;" vertex="1" parent="1">
          <mxGeometry x="1175" y="180" width="86" height="110" as="geometry" />
        </mxCell>
        <mxCell id="mA__yqEP0Z9pplXgvL4o-128" value="xxx1" style="rounded=1;whiteSpace=wrap;html=1;" vertex="1" parent="1">
          <mxGeometry x="1185" y="185" width="70" height="25" as="geometry" />
        </mxCell>
        <mxCell id="mA__yqEP0Z9pplXgvL4o-129" value="xxx2" style="rounded=1;whiteSpace=wrap;html=1;" vertex="1" parent="1">
          <mxGeometry x="1185" y="220" width="70" height="25" as="geometry" />
        </mxCell>
        <mxCell id="mA__yqEP0Z9pplXgvL4o-130" value="xxx3" style="rounded=1;whiteSpace=wrap;html=1;" vertex="1" parent="1">
          <mxGeometry x="1185" y="260" width="70" height="25" as="geometry" />
        </mxCell>
        <mxCell id="mA__yqEP0Z9pplXgvL4o-131" value="xxx集群" style="text;html=1;strokeColor=none;fillColor=none;align=center;verticalAlign=middle;whiteSpace=wrap;rounded=0;" vertex="1" parent="1">
          <mxGeometry x="1175" y="150" width="86" height="30" as="geometry" />
        </mxCell>
        <mxCell id="mA__yqEP0Z9pplXgvL4o-132" value="" style="shape=doubleArrow;whiteSpace=wrap;html=1;" vertex="1" parent="1">
          <mxGeometry x="1120" y="220" width="55" height="30" as="geometry" />
        </mxCell>
        <mxCell id="mA__yqEP0Z9pplXgvL4o-133" value="ES" style="shape=cylinder3;whiteSpace=wrap;html=1;boundedLbl=1;backgroundOutline=1;size=15;" vertex="1" parent="1">
          <mxGeometry x="1189" y="478.90999999999997" width="52" height="62.19" as="geometry" />
        </mxCell>
        <mxCell id="mA__yqEP0Z9pplXgvL4o-134" value="分布式爬虫" style="text;html=1;strokeColor=none;fillColor=none;align=center;verticalAlign=middle;whiteSpace=wrap;rounded=0;" vertex="1" parent="1">
          <mxGeometry x="963.5" y="100" width="86" height="30" as="geometry" />
        </mxCell>
        <mxCell id="mA__yqEP0Z9pplXgvL4o-137" value="file" style="rounded=1;whiteSpace=wrap;html=1;" vertex="1" parent="1">
          <mxGeometry x="300" y="363.9" width="40" height="30" as="geometry" />
        </mxCell>
        <mxCell id="mA__yqEP0Z9pplXgvL4o-138" value="&lt;span style=&quot;&quot;&gt;file&lt;/span&gt;" style="rounded=1;whiteSpace=wrap;html=1;" vertex="1" parent="1">
          <mxGeometry x="336" y="363.9" width="36" height="30" as="geometry" />
        </mxCell>
        <mxCell id="mA__yqEP0Z9pplXgvL4o-139" value="&lt;span style=&quot;&quot;&gt;file&lt;/span&gt;" style="rounded=1;whiteSpace=wrap;html=1;" vertex="1" parent="1">
          <mxGeometry x="372" y="363.9" width="38" height="30" as="geometry" />
        </mxCell>
        <mxCell id="mA__yqEP0Z9pplXgvL4o-142" value="&lt;span style=&quot;&quot;&gt;file&lt;/span&gt;" style="rounded=1;whiteSpace=wrap;html=1;" vertex="1" parent="1">
          <mxGeometry x="408" y="363.9" width="36" height="30" as="geometry" />
        </mxCell>
        <mxCell id="mA__yqEP0Z9pplXgvL4o-143" value="&lt;span style=&quot;&quot;&gt;file&lt;/span&gt;" style="rounded=1;whiteSpace=wrap;html=1;" vertex="1" parent="1">
          <mxGeometry x="444" y="363.9" width="36" height="30" as="geometry" />
        </mxCell>
      </root>
    </mxGraphModel>
  </diagram>
</mxfile>
